<?xml version="1.0" standalone="no"?>
<!DOCTYPE svg PUBLIC "-//W3C//DTD SVG 20010904//EN"
 "http://www.w3.org/TR/2001/REC-SVG-20010904/DTD/svg10.dtd">
<svg version="1.0" xmlns="http://www.w3.org/2000/svg"
 width="150.000000pt" height="150.000000pt" viewBox="0 0 150.000000 150.000000"
 preserveAspectRatio="xMidYMid meet">
<metadata>
Created by potrace 1.14, written by Peter Selinger 2001-2017
</metadata>
<g transform="translate(0.000000,150.000000) scale(0.100000,-0.100000)"
fill="#000000" stroke="none">
<path d="M0 750 l0 -750 750 0 750 0 0 750 0 750 -750 0 -750 0 0 -750z m268
328 c5 -7 10 -66 10 -132 1 -65 3 -120 4 -122 2 -2 75 58 162 131 87 74 161
135 165 135 9 0 31 -22 31 -31 0 -4 -69 -64 -152 -134 -84 -71 -159 -133 -166
-140 -10 -9 20 -43 153 -165 101 -93 165 -160 163 -169 -8 -39 -42 -16 -197
128 -88 83 -162 151 -163 151 -2 0 -2 -55 0 -122 4 -146 0 -170 -31 -166 l-22
3 -3 314 c-2 245 1 316 10 323 18 11 24 10 36 -4z m892 -13 c54 -18 100 -58
100 -85 0 -25 -32 -27 -51 -3 -42 50 -193 72 -271 40 -52 -22 -113 -81 -139
-135 -18 -36 -23 -64 -23 -123 1 -131 65 -228 178 -265 98 -33 224 1 273 75
27 40 31 106 8 138 -21 30 -78 46 -140 40 -62 -6 -85 4 -69 30 17 27 156 25
204 -3 78 -45 96 -146 43 -232 -40 -65 -116 -103 -217 -110 -99 -6 -160 15
-230 79 -67 61 -97 127 -104 225 -16 245 203 409 438 329z"/>
</g>
</svg>
