<?xml version="1.0" standalone="no"?>
<!DOCTYPE svg PUBLIC "-//W3C//DTD SVG 20010904//EN"
 "http://www.w3.org/TR/2001/REC-SVG-20010904/DTD/svg10.dtd">
<svg version="1.0" xmlns="http://www.w3.org/2000/svg"
 width="150.000000pt" height="150.000000pt" viewBox="0 0 150.000000 150.000000"
 preserveAspectRatio="xMidYMid meet">
<metadata>
Created by potrace 1.14, written by Peter Selinger 2001-2017
</metadata>
<g transform="translate(0.000000,150.000000) scale(0.100000,-0.100000)"
fill="#000000" stroke="none">
<path d="M0 750 l0 -750 750 0 750 0 0 750 0 750 -750 0 -750 0 0 -750z m270
197 l5 -137 100 86 c218 186 235 199 251 183 20 -20 15 -25 -151 -164 -77 -65
-146 -123 -153 -130 -11 -10 19 -42 153 -166 156 -145 183 -179 145 -187 -9
-1 -88 65 -177 148 -89 82 -164 150 -167 150 -3 0 -6 -66 -6 -146 0 -145 0
-145 -22 -142 l-23 3 -3 309 c-2 224 1 312 9 323 26 31 34 5 39 -130z m900
112 c75 -34 112 -81 75 -95 -9 -4 -30 7 -50 24 -84 74 -256 60 -344 -29 -102
-101 -103 -297 -3 -402 93 -98 280 -102 366 -7 31 35 36 47 36 89 0 38 -6 56
-24 78 -22 26 -30 28 -103 30 -106 2 -103 1 -103 18 0 26 40 38 111 32 117
-10 169 -56 169 -150 0 -64 -19 -104 -68 -149 -81 -73 -232 -89 -338 -35 -191
97 -232 377 -78 531 63 62 124 86 224 86 64 0 96 -5 130 -21z"/>
</g>
</svg>
